<svg width="16" height="12" viewBox="0 0 16 12" fill="none" xmlns="http://www.w3.org/2000/svg">
<path d="M15.6634 2.13665C15.5707 1.8045 15.3939 1.50187 15.15 1.25802C14.9062 1.01417 14.6035 0.837355 14.2714 0.744654C13.0247 0.410654 8.00738 0.410654 8.00738 0.410654C8.00738 0.410654 3.00271 0.403987 1.74338 0.744654C1.41122 0.837355 1.10859 1.01417 0.864745 1.25802C0.620898 1.50187 0.444079 1.8045 0.351379 2.13665C0.115059 3.41299 -0.00144744 4.70863 0.00337886 6.00665C-0.000535055 7.29978 0.115968 8.59046 0.351379 9.86199C0.444079 10.1941 0.620898 10.4968 0.864745 10.7406C1.10859 10.9845 1.41122 11.1613 1.74338 11.254C2.98871 11.5887 8.00738 11.5887 8.00738 11.5887C8.00738 11.5887 13.0114 11.5887 14.2714 11.254C14.6035 11.1613 14.9062 10.9845 15.15 10.7406C15.3939 10.4968 15.5707 10.1941 15.6634 9.86199C15.8939 8.59 16.0055 7.29932 15.9967 6.00665C16.0064 4.70909 15.8948 3.41346 15.6634 2.13665ZM6.40605 8.40065V3.60532L10.582 6.00665L6.40605 8.40065Z" fill="#BDBDBD"/>
</svg>
